<?xml version="1.0" standalone="no"?>
<!DOCTYPE svg PUBLIC "-//W3C//DTD SVG 20010904//EN"
        "http://www.w3.org/TR/2001/REC-SVG-20010904/DTD/svg10.dtd">
<svg version="1.0" xmlns="http://www.w3.org/2000/svg"
     width="200.000000pt" height="67.000000pt" viewBox="0 0 200.000000 67.000000"
     preserveAspectRatio="xMidYMid meet">

    <g transform="translate(0.000000,67.000000) scale(0.100000,-0.100000)" stroke="none">
        <path d="M328 515 c-28 -15 -44 -47 -33 -65 10 -16 32 -11 38 8 5 23 35 32 65
21 19 -7 22 -16 22 -59 l0 -51 33 3 c28 3 32 7 35 35 9 87 -84 149 -160 108z"/>
        <path d="M365 448 c-2 -7 -6 -33 -7 -58 -3 -43 -4 -45 -33 -42 l-30 3 33 -31
c28 -27 32 -38 32 -80 0 -52 -12 -69 -36 -49 -30 25 -27 -3 3 -32 36 -33 35
-56 -3 -65 -48 -12 -22 -24 51 -24 43 0 75 4 75 10 0 6 -8 10 -18 10 -30 0
-42 22 -42 76 0 47 3 55 32 78 18 14 29 28 25 32 -3 4 -13 1 -21 -5 -27 -23
-36 -2 -36 89 0 80 -12 123 -25 88z"/>
        <path d="M232 403 c-7 -3 -18 -16 -23 -30 -15 -40 12 -73 58 -73 33 0 35 1 19
13 -26 19 -18 61 12 65 13 2 21 9 19 15 -4 13 -63 20 -85 10z"/>
        <path d="M622 328 c2 -66 6 -83 18 -83 10 0 16 12 18 33 3 28 7 33 25 30 17
-2 23 -11 25 -35 3 -35 25 -45 36 -17 3 9 6 45 6 80 0 50 -4 66 -16 71 -19 7
-34 -13 -34 -44 0 -16 -6 -23 -20 -23 -16 0 -20 7 -20 35 0 29 -4 35 -20 35
-20 0 -21 -5 -18 -82z"/>
        <path d="M1327 404 c-9 -9 -9 -126 -1 -148 13 -35 44 -11 44 35 0 12 7 19 19
19 15 0 21 -8 23 -32 2 -21 8 -33 18 -33 12 0 16 17 18 83 3 76 1 83 -15 80
-12 -2 -19 -14 -21 -36 -2 -23 -8 -32 -22 -32 -14 0 -20 9 -22 32 -3 31 -25
48 -41 32z"/>
        <path d="M780 340 c-5 -10 -10 -28 -10 -40 0 -42 17 -59 60 -58 l40 0 0 58 0
58 -40 0 c-29 1 -43 -4 -50 -18z m50 -40 c0 -16 -4 -30 -10 -30 -11 0 -14 43
-3 53 11 12 13 8 13 -23z"/>
        <path d="M900 273 c0 -75 2 -84 18 -81 9 2 18 13 20 26 2 13 10 22 21 22 27 0
41 21 41 61 0 44 -13 56 -62 56 l-38 1 0 -85z m60 27 c0 -16 -4 -30 -10 -30
-5 0 -10 14 -10 30 0 17 5 30 10 30 6 0 10 -13 10 -30z"/>
        <path d="M1024 346 c-3 -7 -4 -44 -2 -82 2 -56 6 -69 21 -72 12 -3 17 3 17 22
0 19 6 25 27 28 31 4 46 41 34 86 -6 24 -13 27 -50 29 -27 1 -44 -3 -47 -11z
m60 -31 c6 -18 -2 -45 -15 -45 -5 0 -9 14 -9 30 0 32 14 40 24 15z"/>
        <path d="M1152 303 c3 -51 6 -58 26 -61 12 -2 22 -8 22 -14 0 -6 -11 -8 -25
-5 -20 3 -25 1 -23 -12 4 -19 53 -27 72 -12 16 14 29 100 20 136 -10 42 -34
31 -34 -16 0 -52 -24 -48 -28 4 -2 25 -8 37 -18 37 -12 0 -14 -12 -12 -57z"/>
        <path d="M1492 348 c-7 -7 -12 -28 -12 -48 0 -43 14 -60 50 -60 36 0 50 17 50
60 0 43 -14 60 -50 60 -14 0 -31 -5 -38 -12z m48 -48 c0 -16 -4 -30 -10 -30
-5 0 -10 14 -10 30 0 17 5 30 10 30 6 0 10 -13 10 -30z"/>
        <path d="M1610 299 c0 -45 4 -59 14 -59 10 0 16 13 18 38 2 20 8 37 13 37 6 0
11 -17 13 -37 5 -54 32 -52 32 2 0 51 18 53 22 3 2 -27 8 -39 21 -41 16 -3 18
3 15 55 l-3 58 -72 1 -73 1 0 -58z"/>
        <path d="M1800 345 c-17 -20 -17 -69 0 -89 15 -19 51 -21 68 -4 18 18 14 30
-10 26 -11 -2 -23 3 -25 10 -3 7 5 12 22 12 23 0 26 4 23 28 -2 22 -9 28 -34
30 -19 2 -36 -3 -44 -13z m50 -20 c0 -8 -7 -15 -15 -15 -9 0 -12 6 -9 15 4 8
10 15 15 15 5 0 9 -7 9 -15z"/>
        <path d="M453 333 c-19 -7 -16 -21 6 -28 27 -8 34 -34 16 -61 -15 -24 -15 -24
18 -24 42 0 57 15 57 56 0 48 -49 77 -97 57z"/>
        <path d="M232 250 c-33 -14 -47 -57 -27 -86 18 -28 61 -42 78 -25 8 8 8 11 0
11 -15 0 -25 29 -18 51 4 11 15 19 26 19 26 0 24 26 -3 34 -28 7 -27 7 -56 -4z"/>
    </g>
</svg>
