<svg width="16" height="16" viewBox="0 0 16 16" fill="none" xmlns="http://www.w3.org/2000/svg">
    <path d="M1.3335 8C1.3335 4.3181 4.31826 1.33333 8.00016 1.33333C11.6821 1.33333 14.6668 4.3181 14.6668 8C14.6668 11.6819 11.6821 14.6667 8.00016 14.6667C4.31826 14.6667 1.3335 11.6819 1.3335 8Z"
          fill="#E34D59"/>
    <path d="M8.00016 9.33333C7.63197 9.33333 7.3335 9.03485 7.3335 8.66666L7.3335 4.66666C7.3335 4.29847 7.63197 3.99999 8.00016 3.99999C8.36835 3.99999 8.66683 4.29847 8.66683 4.66666L8.66683 8.66666C8.66683 9.03485 8.36835 9.33333 8.00016 9.33333Z"
          fill="#E34D59"/>
    <path d="M7.00016 11C7.00016 10.4477 7.44788 10 8.00016 10C8.55245 10 9.00016 10.4477 9.00016 11C9.00016 11.5523 8.55245 12 8.00016 12C7.44788 12 7.00016 11.5523 7.00016 11Z"
          fill="#E34D59"/>
    <path d="M8 9.33333C7.63181 9.33333 7.33333 9.03486 7.33333 8.66667L7.33333 4.66667C7.33333 4.29848 7.63181 4 8 4C8.36819 4 8.66667 4.29848 8.66667 4.66667L8.66667 8.66667C8.66667 9.03486 8.36819 9.33333 8 9.33333Z"
          fill="white"/>
    <path d="M7 11C7 10.4477 7.44772 10 8 10C8.55228 10 9 10.4477 9 11C9 11.5523 8.55228 12 8 12C7.44772 12 7 11.5523 7 11Z"
          fill="white"/>
</svg>
